<?xml version="1.0" encoding="UTF-8" standalone="no"?>
<!DOCTYPE svg PUBLIC "-//W3C//DTD SVG 1.1//EN" "http://www.w3.org/Graphics/SVG/1.1/DTD/svg11.dtd">
<svg width="100%" height="100%" viewBox="0 0 464 534" version="1.1" xmlns="http://www.w3.org/2000/svg" xmlns:xlink="http://www.w3.org/1999/xlink" xml:space="preserve" xmlns:serif="http://www.serif.com/" style="fill-rule:evenodd;clip-rule:evenodd;stroke-linejoin:round;stroke-miterlimit:2;">
    <g transform="matrix(1,0,0,1,-1208.7,-400.35)">
        <g transform="matrix(0.974253,0,0,0.974253,507.937,-19.0839)">
            <g>
                <g transform="matrix(1.58199,0,0,1.58199,-556.969,-279.141)">
                    <path d="M957,451.32L1104.53,536.496L1104.53,706.848L957,792.024L809.471,706.848L809.471,536.496L957,451.32Z" style="fill:none;stroke:white;stroke-width:5.47px;"/>
                </g>
                <g transform="matrix(0.743368,0,0,0.743368,318.691,-1570.32)">
                    <g id="logo.svg">
                        <g>
                            <g>
                                <g transform="matrix(4.16667,0,0,4.16667,690.909,3107.21)">
                                    <g>
                                        <path d="M0,3.627C0,3.627 0.324,7.176 2.928,7.633C5.159,8.022 6.64,5.875 6.64,5.875L7.373,9.338L8.935,9.338C8.935,9.338 10.351,4.114 11.325,3.237C12.304,2.356 13.817,2.112 13.817,2.112C13.817,2.112 15.868,1.963 17.188,0.648C18.508,-0.671 17.284,-2.282 17.284,-2.282C17.284,-2.282 18.946,-2.185 22.315,-2.916C25.684,-3.65 24.659,-5.798 24.659,-5.798C24.659,-5.798 25.538,-5.651 26.271,-6.576C26.791,-7.24 27.173,-8.852 26.221,-10.728C25.371,-12.411 23.878,-12.996 23.878,-12.996C23.878,-12.996 24.431,-13.696 23.264,-14.679C22.658,-15.188 21.582,-15.174 21.582,-15.174C21.582,-15.174 21.319,-16.306 19.704,-17.032C17.869,-17.859 16.651,-17.179 16.651,-17.179C16.651,-17.179 16.16,-18.249 14.744,-18.736C13.328,-19.224 11.914,-18.396 11.914,-18.396C11.914,-18.396 10.955,-19.266 9.198,-19.266C7.438,-19.266 6.784,-18.347 6.784,-18.347C6.784,-18.347 5.727,-18.89 4.441,-18.444C3.227,-18.024 2.878,-16.849 2.878,-16.849C2.878,-16.849 1.999,-17.466 0.781,-16.978C-0.441,-16.491 -0.929,-15.174 -0.929,-15.174C-0.929,-15.174 -1.773,-15.296 -2.607,-14.556C-3.229,-14.001 -3.031,-12.973 -3.031,-12.973C-3.031,-12.973 -4.063,-12.633 -4.685,-11.392C-5.261,-10.239 -4.445,-9.265 -4.445,-9.265C-4.445,-9.265 -6.155,-7.994 -6.398,-4.673C-6.698,-0.623 -4.104,0.156 -4.104,0.156C-4.104,0.156 -4.616,1.445 -3.712,2.844C-2.485,4.751 0,3.627 0,3.627M-10.245,-1.995C-11.181,-9.088 -8.305,-17.587 0.194,-21.401C6.915,-24.417 18.777,-24.413 25.031,-18.711C30.488,-13.734 31.718,-6.674 31.718,-6.674C31.718,-6.674 32.28,-4.052 32.28,-3.183C32.28,-2.346 31.342,-2.019 31.451,-1.594C31.558,-1.166 32.608,0.06 33.41,1.398C34.212,2.734 36.263,5.706 36.263,6.508C36.263,7.311 35.783,7.609 34.82,7.928C33.857,8.25 33.107,8.517 32.948,8.891C32.788,9.266 33.408,10.338 33.438,11.1C33.469,11.75 33.229,11.82 32.742,12.009C32.138,12.245 31.211,12.275 31.211,12.275C31.211,12.275 33.277,12.669 33.072,13.511C32.859,14.392 31.616,14.568 31.505,15.257C31.449,15.603 32.556,17.383 32.41,19.109C32.22,21.369 30.081,22.381 26.689,21.838C23.456,21.317 21.937,20.834 21.522,22.616C21.258,23.74 21.286,25.635 20.807,27.773C20.786,27.859 20.763,27.95 20.745,28.044L-4.063,28.044C-3.003,26.106 -1.608,23.004 -1.608,19.054C-1.608,16.345 -1.878,12.319 -3.82,10.185C-6.257,7.502 -9.491,3.705 -10.245,-1.995" style="fill:white;fill-rule:nonzero;"/>
                                    </g>
                                </g>
                                <g transform="matrix(4.16667,0,0,4.16667,716.13,3066.8)">
                                    <g>
                                        <path d="M0,-41.108L0.854,-42.94L1.318,-43.124C2.377,-42.742 3.436,-42.355 4.497,-41.958L3.898,-41.741L3.058,-39.901C2.477,-38.69 -0.762,-32.67 -9.107,-28.982C-9.107,-28.982 -19.665,-24.6 -22.536,-17.152C-22.536,-17.152 -27.182,-6.443 -16.628,1.21C-16.628,1.21 -16.379,1.379 -16.498,1.686C-16.584,1.907 -16.828,2.016 -17.05,1.93C-17.072,1.922 -17.112,1.907 -17.112,1.907C-26.574,-3.939 -26.854,-12.062 -24.262,-18.793C-21.473,-26.03 -11.385,-30.672 -11.385,-30.672C-3.872,-34.4 -0.796,-39.549 0,-41.108" style="fill:white;fill-rule:nonzero;"/>
                                    </g>
                                </g>
                                <g transform="matrix(4.16667,0,0,4.16667,754.617,3066.8)">
                                    <g>
                                        <path d="M0,-41.108L-0.852,-42.94L-1.318,-43.124C-2.375,-42.742 -3.436,-42.355 -4.497,-41.958L-3.897,-41.741L-3.058,-39.901C-2.477,-38.69 0.762,-32.67 9.109,-28.982C9.109,-28.982 19.665,-24.6 22.535,-17.152C22.535,-17.152 27.18,-6.443 16.626,1.21C16.626,1.21 16.379,1.379 16.498,1.686C16.584,1.907 16.83,2.016 17.05,1.93C17.071,1.922 17.112,1.907 17.112,1.907C26.572,-3.939 26.854,-12.062 24.262,-18.793C21.471,-26.03 11.383,-30.672 11.383,-30.672C3.872,-34.4 0.796,-39.549 0,-41.108" style="fill:white;fill-rule:nonzero;"/>
                                    </g>
                                </g>
                                <g transform="matrix(4.16667,0,0,4.16667,646.63,2969.99)">
                                    <g>
                                        <path d="M0,-17.96C2.07,-7.715 11.124,0 21.983,0C27.934,0 33.343,-2.315 37.356,-6.096" style="fill:none;fill-rule:nonzero;stroke:white;stroke-width:0.85px;stroke-linejoin:miter;stroke-miterlimit:10;"/>
                                    </g>
                                </g>
                                <g transform="matrix(0,4.16667,4.16667,0,735.876,2850.03)">
                                    <g>
                                        <ellipse cx="5.038" cy="0" rx="5.04" ry="5.038" style="fill:none;stroke:white;stroke-width:0.85px;stroke-linejoin:miter;stroke-miterlimit:10;"/>
                                    </g>
                                </g>
                                <g transform="matrix(4.16667,0,0,4.16667,1108.96,2997.97)">
                                    <g>
                                        <path d="M0,14.035L1.134,14.562L1.245,14.852C1.009,15.509 0.769,16.159 0.523,16.818L0.391,16.448L-0.749,15.931C-1.497,15.568 -5.222,13.563 -7.508,8.398C-7.508,8.398 -10.215,1.863 -14.827,0.091C-14.827,0.091 -21.454,-2.783 -26.188,3.75C-26.188,3.75 -26.292,3.899 -26.482,3.828C-26.62,3.774 -26.686,3.621 -26.634,3.482C-26.628,3.472 -26.62,3.444 -26.62,3.444C-23.004,-2.407 -17.973,-2.584 -13.81,-0.976C-9.332,0.747 -6.46,6.99 -6.46,6.99C-4.152,11.64 -0.967,13.544 0,14.035" style="fill:white;fill-rule:nonzero;"/>
                                    </g>
                                </g>
                                <g transform="matrix(4.16667,0,0,4.16667,1108.96,3138.77)">
                                    <g>
                                        <path d="M0,-14.043L1.134,-14.566L1.245,-14.856C1.009,-15.513 0.769,-16.166 0.523,-16.822L0.391,-16.452L-0.749,-15.935C-1.497,-15.571 -5.222,-13.57 -7.508,-8.404C-7.508,-8.404 -10.215,-1.871 -14.827,-0.095C-14.827,-0.095 -21.454,2.779 -26.188,-3.753C-26.188,-3.753 -26.292,-3.907 -26.482,-3.832C-26.62,-3.778 -26.686,-3.625 -26.634,-3.49C-26.628,-3.476 -26.62,-3.452 -26.62,-3.452C-23.004,2.403 -17.973,2.576 -13.81,0.972C-9.332,-0.755 -6.46,-6.998 -6.46,-6.998C-4.152,-11.648 -0.967,-13.548 0,-14.043" style="fill:white;fill-rule:nonzero;"/>
                                    </g>
                                </g>
                                <g transform="matrix(4.16667,0,0,4.16667,1109.18,3109.77)">
                                    <g>
                                        <path d="M0,-23.117C-6.341,-21.835 -11.114,-16.233 -11.114,-9.518C-11.114,-5.834 -9.681,-2.484 -7.34,0" style="fill:none;fill-rule:nonzero;stroke:white;stroke-width:0.85px;stroke-linejoin:miter;stroke-miterlimit:10;"/>
                                    </g>
                                </g>
                                <g transform="matrix(-4.16667,0,0,4.16667,1124.12,3081.66)">
                                    <g>
                                        <circle cx="0" cy="-3.118" r="3.118" style="fill:none;stroke:white;stroke-width:0.85px;stroke-linejoin:miter;stroke-miterlimit:10;"/>
                                    </g>
                                </g>
                                <g transform="matrix(0,4.16667,4.16667,0,954.034,2970.66)">
                                    <g>
                                        <path d="M23.447,-23.444C31.047,-23.444 37.207,-12.947 37.207,0.001C37.207,12.95 31.047,23.447 23.447,23.447C15.844,23.447 9.683,12.95 9.683,0.001C9.683,-12.947 15.844,-23.444 23.447,-23.444" style="fill:white;fill-rule:nonzero;"/>
                                    </g>
                                </g>
                                <g transform="matrix(4.16667,0,0,4.16667,947.192,3161.68)">
                                    <g>
                                        <path d="M0,-9.142C0,-9.142 -17.775,2.837 -26.948,-0.733C-12.933,-3.536 -11.751,-11.979 -11.751,-11.979" style="fill:white;fill-rule:nonzero;"/>
                                    </g>
                                </g>
                                <g transform="matrix(4.16667,0,0,4.16667,0,0)">
                                    <g>
                                        <g>
                                            <clipPath id="_clip1">
                                                <path d="M155.191,740.474C155.191,749.438 164.025,756.705 174.922,756.705C185.818,756.705 194.652,749.438 194.652,740.474C194.652,731.509 185.818,724.243 174.922,724.243C164.025,724.243 155.191,731.509 155.191,740.474Z"/>
                                            </clipPath>
                                            <g clip-path="url(#_clip1)">
                                                <g>
                                                    <g>
                                                        <g transform="matrix(1,0,0,1,147.301,734.785)">
                                                            <text x="0px" y="0px" style="font-family:'ArialMT', 'Arial', sans-serif;font-size:7.249px;fill:white;">0</text>
                                                        </g>
                                                        <g transform="matrix(1,0,0,1,151.475,734.785)">
                                                            <g>
                                                                <text x="0px" y="0px" style="font-family:'ArialMT', 'Arial', sans-serif;font-size:7.249px;fill:white;">1</text>
                                                                <g transform="matrix(1,0,0,1,3.494,0)">
                                                                    <text x="0px" y="0px" style="font-family:'ArialMT', 'Arial', sans-serif;font-size:7.249px;fill:white;">101<tspan x="11.557px 15.05px 19.082px " y="0px 0px 0px ">110</tspan> 01</text>
                                                                </g>
                                                                <g transform="matrix(1,0,0,1,36.146,0)">
                                                                    <text x="0px" y="0px" style="font-family:'ArialMT', 'Arial', sans-serif;font-size:7.249px;fill:white;">101001</text>
                                                                </g>
                                                            </g>
                                                        </g>
                                                    </g>
                                                    <g>
                                                        <g transform="matrix(1,0,0,1,147.301,743.485)">
                                                            <text x="0px" y="0px" style="font-family:'ArialMT', 'Arial', sans-serif;font-size:7.249px;fill:white;">0</text>
                                                        </g>
                                                        <g transform="matrix(1,0,0,1,151.439,743.485)">
                                                            <g>
                                                                <text x="0px" y="0px" style="font-family:'ArialMT', 'Arial', sans-serif;font-size:7.249px;fill:white;">1</text>
                                                                <g transform="matrix(1,0,0,1,3.494,0)">
                                                                    <text x="0px" y="0px" style="font-family:'ArialMT', 'Arial', sans-serif;font-size:7.249px;fill:white;">10001</text>
                                                                </g>
                                                                <g transform="matrix(1,0,0,1,23.113,0)">
                                                                    <text x="0px" y="0px" style="font-family:'ArialMT', 'Arial', sans-serif;font-size:7.249px;fill:white;">1 01</text>
                                                                </g>
                                                                <g transform="matrix(1,0,0,1,36.684,0)">
                                                                    <text x="0px" y="0px" style="font-family:'ArialMT', 'Arial', sans-serif;font-size:7.249px;fill:white;">100101</text>
                                                                </g>
                                                            </g>
                                                        </g>
                                                    </g>
                                                    <g>
                                                        <g transform="matrix(1,0,0,1,147.301,752.184)">
                                                            <text x="0px" y="0px" style="font-family:'ArialMT', 'Arial', sans-serif;font-size:7.249px;fill:white;">000</text>
                                                        </g>
                                                        <g transform="matrix(1,0,0,1,159.5,752.184)">
                                                            <g>
                                                                <text x="0px" y="0px" style="font-family:'ArialMT', 'Arial', sans-serif;font-size:7.249px;fill:white;">01</text>
                                                                <g transform="matrix(1,0,0,1,7.525,0)">
                                                                    <text x="0px" y="0px" style="font-family:'ArialMT', 'Arial', sans-serif;font-size:7.249px;fill:white;">101</text>
                                                                </g>
                                                            </g>
                                                        </g>
                                                        <g transform="matrix(1,0,0,1,181.343,752.184)">
                                                            <text x="0px" y="0px" style="font-family:'ArialMT', 'Arial', sans-serif;font-size:7.249px;fill:white;">000</text>
                                                        </g>
                                                        <g transform="matrix(1,0,0,1,193.542,752.184)">
                                                            <text x="0px" y="0px" style="font-family:'ArialMT', 'Arial', sans-serif;font-size:7.249px;fill:white;">010</text>
                                                        </g>
                                                        <g transform="matrix(1,0,0,1,205.741,752.184)">
                                                            <text x="0px" y="0px" style="font-family:'ArialMT', 'Arial', sans-serif;font-size:7.249px;fill:white;">10</text>
                                                        </g>
                                                    </g>
                                                </g>
                                            </g>
                                        </g>
                                    </g>
                                </g>
                            </g>
                        </g>
                    </g>
                </g>
            </g>
        </g>
    </g>
</svg>
