<?xml version="1.0" encoding="UTF-8"?><svg id="Ebene_1" xmlns="http://www.w3.org/2000/svg" xmlns:xlink="http://www.w3.org/1999/xlink" viewBox="0 0 655.33 152.67"><defs><style>.cls-1{stroke:url(#Unbenannter_Verlauf_2-7);}.cls-1,.cls-2,.cls-3,.cls-4,.cls-5,.cls-6,.cls-7,.cls-8,.cls-9,.cls-10,.cls-11,.cls-12,.cls-13,.cls-14{stroke-miterlimit:10;}.cls-1,.cls-2,.cls-3,.cls-5,.cls-6,.cls-7,.cls-8,.cls-11,.cls-12,.cls-13,.cls-14{fill:none;}.cls-1,.cls-2,.cls-3,.cls-5,.cls-6,.cls-10,.cls-11,.cls-12,.cls-13,.cls-14{stroke-width:.8px;}.cls-2{stroke:url(#Unbenannter_Verlauf_2-4);}.cls-15{fill:#79ba48;}.cls-15,.cls-16,.cls-17{font-family:HelveticaNeueLTPro-Lt, 'Helvetica Neue LT Pro';font-size:17px;}.cls-3{stroke:url(#Unbenannter_Verlauf_2-10);}.cls-4{stroke:#44b4e8;}.cls-4,.cls-8,.cls-9{stroke-width:1.6px;}.cls-4,.cls-9,.cls-10{fill:#fff;}.cls-5{stroke:url(#Unbenannter_Verlauf_2-3);}.cls-18{fill-rule:evenodd;}.cls-18,.cls-19{fill:#010101;}.cls-6{stroke:url(#Unbenannter_Verlauf_2-5);}.cls-16{fill:#643b8f;}.cls-7{stroke:#1d1d1b;stroke-width:3.2px;}.cls-8{stroke:#79ba48;}.cls-9{stroke:#643b8f;}.cls-10{stroke:url(#Unbenannter_Verlauf_2);}.cls-17{fill:#44b4e8;}.cls-11{stroke:url(#Unbenannter_Verlauf_2-6);}.cls-12{stroke:url(#Unbenannter_Verlauf_2-9);}.cls-13{stroke:url(#Unbenannter_Verlauf_2-2);}.cls-20{fill:#010202;}.cls-14{stroke:url(#Unbenannter_Verlauf_2-8);}.cls-21{fill:#1d1d1b;}</style><linearGradient id="Unbenannter_Verlauf_2" x1="381.29" y1="64.52" x2="392.85" y2="64.52" gradientUnits="userSpaceOnUse"><stop offset="0" stop-color="#000"/><stop offset="1" stop-color="#fff"/></linearGradient><linearGradient id="Unbenannter_Verlauf_2-2" x1="387.07" y1="76.37" x2="411.64" y2="76.37" xlink:href="#Unbenannter_Verlauf_2"/><linearGradient id="Unbenannter_Verlauf_2-3" x1="388.11" y1="82.29" x2="411.64" y2="82.29" xlink:href="#Unbenannter_Verlauf_2"/><linearGradient id="Unbenannter_Verlauf_2-4" x1="384.04" y1="88.22" x2="404.16" y2="88.22" xlink:href="#Unbenannter_Verlauf_2"/><linearGradient id="Unbenannter_Verlauf_2-5" x1="386.18" y1="70.44" x2="402.02" y2="70.44" xlink:href="#Unbenannter_Verlauf_2"/><linearGradient id="Unbenannter_Verlauf_2-6" x1="441.96" y1="68.16" x2="457.63" y2="68.16" xlink:href="#Unbenannter_Verlauf_2"/><linearGradient id="Unbenannter_Verlauf_2-7" x1="439.19" y1="73.63" x2="451.87" y2="73.63" xlink:href="#Unbenannter_Verlauf_2"/><linearGradient id="Unbenannter_Verlauf_2-8" x1="438.54" y1="83.54" x2="451.87" y2="83.54" xlink:href="#Unbenannter_Verlauf_2"/><linearGradient id="Unbenannter_Verlauf_2-9" x1="236.19" y1="80.6" x2="250.6" y2="80.6" xlink:href="#Unbenannter_Verlauf_2"/><linearGradient id="Unbenannter_Verlauf_2-10" x1="243.14" y1="82.31" x2="252.53" y2="82.31" xlink:href="#Unbenannter_Verlauf_2"/></defs><line class="cls-9" x1="215.73" y1="126.7" x2="215.73" y2="147.1"/><line class="cls-9" x1="260.18" y1="134.87" x2="260.18" y2="147.1"/><line class="cls-4" x1="262.85" y1="91.53" x2="262.85" y2="147.1"/><line class="cls-9" x1="314.83" y1="123.76" x2="314.83" y2="147.1"/><line class="cls-9" x1="353.27" y1="131.45" x2="353.27" y2="147.1"/><line class="cls-4" x1="365.86" y1="85.77" x2="365.86" y2="147.1"/><line class="cls-9" x1="409.84" y1="116.28" x2="409.84" y2="147.1"/><line class="cls-9" x1="438.74" y1="133.53" x2="438.74" y2="147.1"/><line class="cls-4" x1="481.02" y1="81.27" x2="481.02" y2="147.1"/><line class="cls-9" x1="476.05" y1="116.28" x2="476.05" y2="147.1"/><line class="cls-9" x1="531.76" y1="132.53" x2="531.76" y2="147.1"/><line class="cls-8" x1="223.54" y1="54.9" x2="223.54" y2="147.1"/><line class="cls-8" x1="340.2" y1="46.09" x2="340.2" y2="147.1"/><line class="cls-8" x1="273.82" y1="46.09" x2="273.82" y2="147.1"/><line class="cls-8" x1="435.7" y1="54.9" x2="435.7" y2="147.1"/><line class="cls-8" x1="498.87" y1="54.9" x2="498.87" y2="147.1"/><line class="cls-8" x1="314.46" y1="54.9" x2="314.46" y2="147.1"/><line class="cls-8" x1="521.7" y1="46.58" x2="521.7" y2="147.1"/><line class="cls-8" x1="459.96" y1="46.58" x2="459.96" y2="147.1"/><line class="cls-8" x1="378.86" y1="54.9" x2="378.86" y2="147.1"/><line class="cls-8" x1="403.11" y1="46.58" x2="403.11" y2="147.1"/><line class="cls-7" x1="193.74" y1="146.41" x2="549.31" y2="146.41"/><polygon class="cls-21" points="546.97 154.39 560.8 146.41 546.97 138.43 546.97 154.39"/><path class="cls-20" d="m225.07,39.79l-.12-.27c-.29-.78-.61-1.38-.95-1.82-.34-.44-.83-.85-1.46-1.24-.62-.39-1.47-.58-2.57-.58h-.73c-1.26,0-2.26.21-2.99.63-.73.4-1.3,1-1.7,1.8-.4.81-.61,1.89-.61,3.23v.17c0,1.46.26,2.92.78,4.37.5,1.44.97,2.69,1.41,3.74l.68,1.58,6.68-1.46,2.11-.66v-5.76c0-1.54-.18-2.79-.53-3.74"/><path class="cls-20" d="m226.6,59.88c.19-.26.4-.6.61-1.02.23-.42.34-.99.34-1.7v-.44c0-1.02-.23-2.04-.68-3.06l-.68-1.53-3.35.49-4.98,1.34.46,1.46c.31.96.65,1.83,1.02,2.62l.1.17c.31.66.64,1.16,1,1.48.36.34.82.66,1.38.97.58.32,1.28.49,2.09.49h.1c.75,0,1.31-.15,1.7-.44h.02c.39-.29.68-.57.88-.83"/><path class="cls-19" d="m214.58,107.36c6.95,0,13.08,6.22,15.3,8.77-2.22,2.56-8.33,8.77-15.3,8.77s-13.08-6.22-15.3-8.77c2.22-2.56,8.33-8.77,15.3-8.77m0-1.8c-9.74,0-17.63,10.57-17.63,10.57,0,0,7.89,10.57,17.63,10.57s17.63-10.57,17.63-10.57c0,0-7.89-10.57-17.63-10.57h0Z"/><path class="cls-19" d="m214.74,105.71c-4.76,0-8.62,3.86-8.62,8.62s3.86,8.62,8.62,8.62,8.62-3.86,8.62-8.62-3.86-8.62-8.62-8.62Zm-6.29,4.72c.27-.73.85-1.32,1.58-1.58,2.3-.84,4.44,1.2,3.79,3.49-.26.9-.98,1.62-1.88,1.88-2.29.66-4.33-1.48-3.49-3.79h0Zm6.54,10.45c-1.89,0-3.58-.85-4.72-2.18,1.49.74,3.29.97,5.15.43,2.21-.63,3.98-2.4,4.62-4.62.31-1.08.36-2.14.21-3.13.6.95.95,2.08.95,3.28,0,3.43-2.78,6.21-6.21,6.21h0Z"/><path class="cls-19" d="m260.02,116.33c6.95,0,13.08,6.22,15.3,8.77-2.22,2.56-8.33,8.77-15.3,8.77s-13.08-6.22-15.3-8.77c2.22-2.56,8.33-8.77,15.3-8.77m0-1.8c-9.74,0-17.63,10.57-17.63,10.57,0,0,7.89,10.57,17.63,10.57s17.63-10.57,17.63-10.57c0,0-7.89-10.57-17.63-10.57h0Z"/><path class="cls-19" d="m260.18,114.68c-4.76,0-8.62,3.86-8.62,8.62s3.86,8.62,8.62,8.62,8.62-3.86,8.62-8.62-3.86-8.62-8.62-8.62Zm-6.29,4.72c.27-.73.85-1.32,1.58-1.58,2.3-.84,4.44,1.2,3.79,3.49-.26.9-.98,1.62-1.88,1.88-2.29.66-4.33-1.48-3.49-3.79h0Zm6.54,10.45c-1.89,0-3.58-.85-4.72-2.18,1.49.74,3.29.97,5.15.43,2.21-.63,3.98-2.4,4.62-4.62.31-1.08.36-2.14.21-3.13.6.95.95,2.08.95,3.28,0,3.43-2.78,6.21-6.21,6.21h0Z"/><path class="cls-19" d="m314.42,104.42c6.95,0,13.08,6.22,15.3,8.77-2.22,2.56-8.33,8.77-15.3,8.77s-13.08-6.22-15.3-8.77c2.22-2.56,8.33-8.77,15.3-8.77m0-1.8c-9.74,0-17.63,10.57-17.63,10.57,0,0,7.89,10.57,17.63,10.57s17.63-10.57,17.63-10.57c0,0-7.89-10.57-17.63-10.57h0Z"/><path class="cls-19" d="m314.58,102.77c-4.76,0-8.62,3.86-8.62,8.62s3.86,8.62,8.62,8.62,8.62-3.86,8.62-8.62-3.86-8.62-8.62-8.62Zm-6.29,4.72c.27-.73.85-1.32,1.58-1.58,2.3-.84,4.44,1.2,3.79,3.49-.26.9-.98,1.62-1.88,1.88-2.29.66-4.33-1.48-3.49-3.79h0Zm6.54,10.45c-1.89,0-3.58-.85-4.72-2.18,1.49.74,3.29.97,5.15.43,2.21-.63,3.98-2.4,4.62-4.62.31-1.08.36-2.14.21-3.13.6.95.95,2.08.95,3.28,0,3.43-2.78,6.21-6.21,6.21h0Z"/><path class="cls-19" d="m353.92,113.19c6.95,0,13.08,6.22,15.3,8.77-2.22,2.56-8.33,8.77-15.3,8.77s-13.08-6.22-15.3-8.77c2.22-2.56,8.33-8.77,15.3-8.77m0-1.8c-9.74,0-17.63,10.57-17.63,10.57,0,0,7.89,10.57,17.63,10.57s17.63-10.57,17.63-10.57c0,0-7.89-10.57-17.63-10.57h0Z"/><path class="cls-19" d="m354.07,111.54c-4.76,0-8.62,3.86-8.62,8.62s3.86,8.62,8.62,8.62,8.62-3.86,8.62-8.62-3.86-8.62-8.62-8.62Zm-6.29,4.72c.27-.73.85-1.32,1.58-1.58,2.3-.84,4.44,1.2,3.79,3.49-.26.9-.98,1.62-1.88,1.88-2.29.66-4.33-1.48-3.49-3.79h0Zm6.54,10.45c-1.89,0-3.58-.85-4.72-2.18,1.49.74,3.29.97,5.15.43,2.21-.63,3.98-2.4,4.62-4.62.31-1.08.36-2.14.21-3.13.6.95.95,2.08.95,3.28,0,3.43-2.78,6.21-6.21,6.21h0Z"/><path class="cls-19" d="m410.49,96.94c6.95,0,13.08,6.22,15.3,8.77-2.22,2.56-8.33,8.77-15.3,8.77s-13.08-6.22-15.3-8.77c2.22-2.56,8.33-8.77,15.3-8.77m0-1.8c-9.74,0-17.63,10.57-17.63,10.57,0,0,7.89,10.57,17.63,10.57s17.63-10.57,17.63-10.57c0,0-7.89-10.57-17.63-10.57h0Z"/><path class="cls-19" d="m410.64,95.29c-4.76,0-8.62,3.86-8.62,8.62s3.86,8.62,8.62,8.62,8.62-3.86,8.62-8.62-3.86-8.62-8.62-8.62Zm-6.29,4.72c.27-.73.85-1.32,1.58-1.58,2.3-.84,4.44,1.2,3.79,3.49-.26.9-.98,1.62-1.88,1.88-2.29.66-4.33-1.48-3.49-3.79h0Zm6.54,10.45c-1.89,0-3.58-.85-4.72-2.18,1.49.74,3.29.97,5.15.43,2.21-.63,3.98-2.4,4.62-4.62.31-1.08.36-2.14.21-3.13.6.95.95,2.08.95,3.28,0,3.43-2.78,6.21-6.21,6.21h0Z"/><path class="cls-19" d="m439.19,114.99c6.95,0,13.08,6.22,15.3,8.77-2.22,2.56-8.33,8.77-15.3,8.77s-13.08-6.22-15.3-8.77c2.22-2.56,8.33-8.77,15.3-8.77m0-1.8c-9.74,0-17.63,10.57-17.63,10.57,0,0,7.89,10.57,17.63,10.57s17.63-10.57,17.63-10.57c0,0-7.89-10.57-17.63-10.57h0Z"/><path class="cls-19" d="m439.34,113.34c-4.76,0-8.62,3.86-8.62,8.62s3.86,8.62,8.62,8.62,8.62-3.86,8.62-8.62-3.86-8.62-8.62-8.62Zm-6.29,4.72c.27-.73.85-1.32,1.58-1.58,2.3-.84,4.44,1.2,3.79,3.49-.26.9-.98,1.62-1.88,1.88-2.29.66-4.33-1.48-3.49-3.79h0Zm6.54,10.45c-1.89,0-3.58-.85-4.72-2.18,1.49.74,3.29.97,5.15.43,2.21-.63,3.98-2.4,4.62-4.62.31-1.08.36-2.14.21-3.13.6.95.95,2.08.95,3.28,0,3.43-2.78,6.21-6.21,6.21h0Z"/><path class="cls-19" d="m476.35,96.94c6.95,0,13.08,6.22,15.3,8.77-2.22,2.56-8.33,8.77-15.3,8.77s-13.08-6.22-15.3-8.77c2.22-2.56,8.33-8.77,15.3-8.77m0-1.8c-9.74,0-17.63,10.57-17.63,10.57,0,0,7.89,10.57,17.63,10.57s17.63-10.57,17.63-10.57c0,0-7.89-10.57-17.63-10.57h0Z"/><path class="cls-19" d="m476.5,95.29c-4.76,0-8.62,3.86-8.62,8.62s3.86,8.62,8.62,8.62,8.62-3.86,8.62-8.62-3.86-8.62-8.62-8.62Zm-6.29,4.72c.27-.73.85-1.32,1.58-1.58,2.3-.84,4.44,1.2,3.79,3.49-.26.9-.98,1.62-1.88,1.88-2.29.66-4.33-1.48-3.49-3.79h0Zm6.54,10.45c-1.89,0-3.58-.85-4.72-2.18,1.49.74,3.29.97,5.15.43,2.21-.63,3.98-2.4,4.62-4.62.31-1.08.36-2.14.21-3.13.6.95.95,2.08.95,3.28,0,3.43-2.78,6.21-6.21,6.21h0Z"/><path class="cls-19" d="m532.4,114.99c6.95,0,13.08,6.22,15.3,8.77-2.22,2.56-8.33,8.77-15.3,8.77s-13.08-6.22-15.3-8.77c2.22-2.56,8.33-8.77,15.3-8.77m0-1.8c-9.74,0-17.63,10.57-17.63,10.57,0,0,7.89,10.57,17.63,10.57s17.63-10.57,17.63-10.57c0,0-7.89-10.57-17.63-10.57h0Z"/><path class="cls-19" d="m532.56,113.34c-4.76,0-8.62,3.86-8.62,8.62s3.86,8.62,8.62,8.62,8.62-3.86,8.62-8.62-3.86-8.62-8.62-8.62Zm-6.29,4.72c.27-.73.85-1.32,1.58-1.58,2.3-.84,4.44,1.2,3.79,3.49-.26.9-.98,1.62-1.88,1.88-2.29.66-4.33-1.48-3.49-3.79h0Zm6.54,10.45c-1.89,0-3.58-.85-4.72-2.18,1.49.74,3.29.97,5.15.43,2.21-.63,3.98-2.4,4.62-4.62.31-1.08.36-2.14.21-3.13.6.95.95,2.08.95,3.28,0,3.43-2.78,6.21-6.21,6.21h0Z"/><path class="cls-20" d="m351,28.76v-.17c0-1.34-.2-2.42-.61-3.23-.41-.79-.97-1.39-1.7-1.8-.73-.42-1.72-.63-2.99-.63h-.73c-1.1,0-1.96.19-2.57.58-.63.39-1.12.8-1.46,1.24-.34.44-.66,1.04-.95,1.82l-.12.27c-.36.96-.53,2.2-.53,3.74v5.76l2.11.66,6.68,1.46.68-1.58c.44-1.05.91-2.3,1.41-3.74.52-1.46.78-2.91.78-4.37"/><path class="cls-20" d="m344.52,46.73c.36-.32.69-.82,1-1.48l.1-.17c.37-.79.71-1.67,1.02-2.62l.46-1.46-4.98-1.34-3.35-.49-.68,1.53c-.45,1.02-.68,2.04-.68,3.06v.44c0,.71.11,1.28.34,1.7.21.42.41.76.61,1.02s.49.53.87.83h.02c.39.29.96.44,1.7.44h.1c.81,0,1.51-.16,2.09-.49.57-.31,1.03-.63,1.39-.97"/><path class="cls-20" d="m531.29,28.76v-.17c0-1.34-.2-2.42-.61-3.23-.41-.79-.97-1.39-1.7-1.8-.73-.42-1.72-.63-2.99-.63h-.73c-1.1,0-1.96.19-2.57.58-.63.39-1.12.8-1.46,1.24-.34.44-.66,1.04-.95,1.82l-.12.27c-.36.96-.53,2.2-.53,3.74v5.76l2.11.66,6.68,1.46.68-1.58c.44-1.05.91-2.3,1.41-3.74.52-1.46.78-2.91.78-4.37"/><path class="cls-20" d="m524.81,46.73c.36-.32.69-.82,1-1.48l.1-.17c.37-.79.71-1.67,1.02-2.62l.46-1.46-4.98-1.34-3.35-.49-.68,1.53c-.45,1.02-.68,2.04-.68,3.06v.44c0,.71.11,1.28.34,1.7.21.42.41.76.61,1.02s.49.53.87.83h.02c.39.29.96.44,1.7.44h.1c.81,0,1.51-.16,2.09-.49.57-.31,1.03-.63,1.39-.97"/><path class="cls-20" d="m436.57,36.05l-.12-.27c-.29-.78-.61-1.38-.95-1.82-.34-.44-.83-.85-1.46-1.24-.62-.39-1.47-.58-2.57-.58h-.73c-1.26,0-2.26.21-2.99.63-.73.4-1.3,1-1.7,1.8-.4.81-.61,1.89-.61,3.23v.17c0,1.46.26,2.92.78,4.37.5,1.44.97,2.69,1.41,3.74l.68,1.58,6.68-1.46,2.11-.66v-5.76c0-1.54-.18-2.79-.53-3.74"/><path class="cls-20" d="m438.1,56.15c.19-.26.4-.6.61-1.02.23-.42.34-.99.34-1.7v-.44c0-1.02-.23-2.04-.68-3.06l-.68-1.53-3.35.49-4.98,1.34.46,1.46c.31.96.65,1.83,1.02,2.62l.1.17c.31.66.64,1.16,1,1.48.36.34.82.66,1.38.97.58.32,1.28.49,2.09.49h.1c.75,0,1.31-.15,1.7-.44h.02c.39-.29.68-.57.88-.83"/><path class="cls-19" d="m372.72,77.99c-1.25,0-2.44.27-3.51.75l-2.32-4.29.07-.26.96-.94c.13-.13.24-.27.33-.43.64-.99.65-2.31-.07-3.33l-5.31-7.54c-.95-1.34-2.8-1.67-4.15-.72-.1.07-.2.15-.29.24-.11.08-.22.17-.32.28l-6.94,7.69c-.69.77-.67,1.92,0,2.67h-2.29c-.33,0-.61.17-.6.51,0,.33.27.5.61.5h3.04s-.24,1.21-.24,1.21c0,0,0,.06,0,.06l-.38,1.77-.73,2.11c-.72-.2-1.48-.3-2.27-.3-4.72,0-8.55,3.86-8.54,8.58,0,4.72,3.85,8.55,8.57,8.54,4.72,0,8.55-3.85,8.54-8.57,0-3.51-2.13-6.52-5.16-7.83l.42-1.2,6.7,6.91.98,3.2c.27.86,1.06,1.41,1.92,1.4.19,0,.38-.03.56-.09.56-.17.99-.57,1.22-1.07l.75-.06c.61,4.13,4.18,7.31,8.48,7.3,4.72,0,8.55-3.86,8.54-8.57,0-4.72-3.85-8.55-8.57-8.54h0Zm-17.25,8.54c0,3.94-3.19,7.15-7.13,7.15-3.94,0-7.15-3.19-7.15-7.13,0-3.94,3.19-7.15,7.13-7.15.62,0,1.22.08,1.8.23l-2.36,6.77c-.11.32.06.66.37.77.07.02.13.03.2.03.25,0,.49-.16.57-.41l2.36-6.76c2.47,1.12,4.21,3.61,4.21,6.5h0Zm-2.2-13.82s0-.03,0-.04c.31-.11.6-.29.84-.55l4.84-5.36,4.06,5.76-1.12,1.1-8.86.02.24-.92Zm4.59,4.85c-.53.52-.73,1.29-.51,2l.69,2.24-5.49-5.62.21-1.04h7.58s-2.49,2.43-2.49,2.43Zm4.99,6.38l-1.35-4.39,3.69-3.61-2.34,8.01Zm1.4,2.62v.03l-.58.04c-.01-.06-.03-.13-.05-.19l-.09-.3,2.9-10.01,1.76,3.2c-2.39,1.52-3.94,4.19-3.94,7.23h0Zm4.56-5.98l2.94,5.43-6.16.47c.02-2.46,1.3-4.63,3.22-5.9h0Zm3.93,13.11c-3.55,0-6.51-2.6-7.06-6l7.09-.54c.2-.01.39-.13.49-.31.1-.18.1-.4,0-.58l-3.38-6.26c.87-.38,1.83-.59,2.84-.59,3.94,0,7.15,3.19,7.15,7.13,0,3.94-3.19,7.15-7.13,7.15h0Z"/><path class="cls-19" d="m359.87,57.21c0,1.75-1.42,3.18-3.18,3.18s-3.18-1.42-3.18-3.18,1.42-3.18,3.18-3.18,3.18,1.42,3.18,3.18"/><path class="cls-19" d="m372.33,75.82c0,.23.19.42.42.42h7.91c.23,0,.42-.19.42-.42v-7.84c0-.23-.19-.42-.42-.42s-.42.19-.42.42v7.41h-7.48c-.23,0-.42.19-.42.42h0Z"/><path class="cls-19" d="m377.17,61.87c0,1.31-1.06,2.37-2.37,2.37s-2.37-1.06-2.37-2.37,1.06-2.37,2.37-2.37,2.37,1.06,2.37,2.37"/><path class="cls-19" d="m369.27,69.87s.05,0,.07,0l3.33-.21c.25-.02.49-.12.68-.29l1.25-1.14.85,4.09h-3.33c-.35,0-.67.16-.88.44l-2.52,3.29c-.37.49-.28,1.19.21,1.56.2.15.44.23.68.23.33,0,.67-.15.89-.44l2.19-2.85h4.75s0,0,0,0c.12,0,.25-.01.38-.04,1.01-.21,1.65-1.19,1.44-2.2l-1.31-6.32c-.21-1-1.19-1.65-2.2-1.44-.32.07-.6.21-.84.41-.06.04-.13.08-.18.14l-2.58,2.35-2.94.19c-.61.04-1.08.57-1.04,1.18.04.59.53,1.04,1.11,1.04h0Z"/><line class="cls-10" x1="381.29" y1="64.52" x2="392.85" y2="64.52"/><line class="cls-13" x1="387.07" y1="76.37" x2="411.64" y2="76.37"/><line class="cls-5" x1="388.11" y1="82.29" x2="411.64" y2="82.29"/><line class="cls-2" x1="384.04" y1="88.22" x2="404.16" y2="88.22"/><line class="cls-6" x1="386.18" y1="70.44" x2="402.02" y2="70.44"/><path class="cls-18" d="m485.21,67.3c0,2.7-.5,6.26-.92,7.33-.43,1.07-2.07,4.77-2.07,4.77,0,0,1.5,1.14,1.5,1.07-1.14.57-2.78,1.64-3.42,2.35-.71.64-1.57,1.78-2,2.49-.43.64-1.64,2.28-2.21,2.56-.5.29-.64.64-.43,1.14.22.43.5,1.64.57,1.85.21.43-.43,1.07-.71.28-.28-.71-.35-.78-.43-1.21-.07-.43-.43-3.13-.57-3.7-.14-.5-.64-3.35-.85-4.06-.21-.71-.85-2.99-1-3.78-.14-.71-.21-2.06-.21-2.42s0-1.07.07-1.07,1.92,2.64,2.42,3.06c.57.36,1.43.57,2.14.36.64-.28,3.71-1.28,4.42-1.42.64-.07,1.35-.93,1.5-1.5.14-.5-.07-1.14-.21-1.57-.14-.36-1.07-2.78-1.14-3.28-.07-.57-.5-1,.07-1.35.43-.35,3.49-1.92,3.49-1.92m11.47,12.89c-.5.28-1.28.57-1.5.57s-.07.22-.07.36c.07.14,2.49,9.54,2.64,9.9.07.35.36.78.86.78.57.07,1.99.22,2.49.36.5.07.78.14.71.43,0,.43-.36.43-.57.5-.22,0-3.35.85-3.7.93-.43.14-.86.21-1.07.21s-.85-.21-.93-.71c0-.43-.14-1.35-.28-1.85-.14-.43-.86-1.78-1.21-2.35-.43-.57-1.14-1.92-1.36-2.56-.21-.71-.64-2.28-.64-3.63,0-.64,0-1.57-.79-1.57-.85,0-1.21.21-2.06.21s-1.14-.07-1.57-.07c-.36,0-.93.22-1.21.57-.28.36-2.28,2.21-2.63,2.56-.43.43-2.28,2-2.78,2.42-.5.43-1.57,1.21-1.92,1.5-.36.21-.5.5-.43.85.14.43.57,2.92.71,3.35.14.64-.07.78-.5.78s-1.36-.71-1.71-.78l-4.49,1.07c-.5-4.35-2.49-10.54-3.84-12.82-.64.85-2.49,3.13-3.28,3.7-.71.57-1.5.79-2.14,1-.64.14-4.2,1.42-4.49,1.5-.36.07-.57.35-.64.64-.07.36-.21,2.06-.21,2.35,0,.36-.07.43-.5.5-.43.07-.5-.5-.5-.5l-1.14-5.34,5.13-2.21c1.43-.64,2.78-1.92,3.56-3.77.79-1.78,1.42-3.99,1.49-6.2-1.07.43-2.21,1.43-2.78,2.14-.57.71-1.28,2.07-1.28,2.78,0,1,.64,1.07.64,1.85s-.78,1.57-1.71,1.57-1.35-.5-1.35-1.21.43-.5.43-1.14c0-.71-.07-1.28-.07-1.64s.22-2.42.64-3.42c.43-1,1.78-2.71,2.21-3.21.43-.57,1.57-1.42,2.85-1.85,1.35-.36,2.49-.36,3.06-.36.43,0,1.21-.14.78-.78-.5-.57-1.21-1.35-1.21-2.85s1-3.27,3.13-3.27,3.13,1.85,3.13,3.2c0,1.42-1.21,2.99-1.78,3.27-.57.28-.28.79-.14.93.22.14,2.28,2.92,2.56,3.42.28.57,1.71,2.78,1.85,3.13.14.43.43.64,1.14.43.64-.28,1.57-.79,1.85-.93.28-.14.14-.28.07-.57-.07-.35-1.64-4.77-1.71-5.05-.14-.29-.14-.5-.14-.57s0-.22.22-.43c.14-.22,1.71-1.85,2.06-2.21.79-.64,3.63-2.85,4.13-3.13.5-.21.35-.14.78-.14s1.21.14,1.57.14c.28,0,.5-.5.07-.57-.5-.14-1.43-.43-1.71-1.07-.28-.64-.43-1.78-.43-2.21,0-.5.21-4.2,3.42-4.2s3.49,3.56,3.49,4.27-.21,1.92-.5,2.35c-.36.43-.71.64-.85.78-.14.07-.36.5.07.57.43.14,1.64.43,2.21,1,.79.86,1.78,2.78,2.28,3.92.5,1.21,1.57,3.28,2.92,4.56,1.43,1.36,3.06,2.42,3.35,2.56.28.14.64.22.85.36.21.14.57.5.57,1.14,0,.57-.57,1.21-1.28,1.21s-.93-.43-1.28-.57c-.29-.14-.93-.29-1.28-.57-.36-.22-2.64-1.57-3.63-2.71-1.07-1.14-2.56-3.14-2.85-4.2.28,1.07,1.28,4.49,1.49,4.91.14.43.57,1.64,1,2.42.36.78,1.71,3.28,1.71,3.28"/><line class="cls-11" x1="457.63" y1="68.16" x2="441.96" y2="68.16"/><line class="cls-1" x1="451.87" y1="73.63" x2="439.19" y2="73.63"/><line class="cls-14" x1="451.87" y1="83.54" x2="438.54" y2="83.54"/><path class="cls-19" d="m262.29,56.54c.99-.29,1.85-.97,2.92-1.07.48.23.47.92.41,1.37-.32.91-1.29,1.29-1.81,2.06.78.1,1.56-.04,2.35.05.36.33.3.96.03,1.35-.63.8-1.74.97-2.47,1.66-.34.41.01.89.19,1.3.3.56.22,1.22.38,1.83.1.33.48.36.75.49.75.23,1.45.62,2.17.97.49.21.7.74,1.14,1.04.32-1.08.11-2.24.47-3.31.41-.93,1.13-1.7,1.67-2.57.47-.78,1.41-.97,2.21-1.25.43-.18.84.14,1.13.43-.23.54-.52,1.06-.82,1.56-.58.56-1.43.92-1.69,1.74-.15.69-.21,1.43-.01,2.1.73-.01,1.41-.29,2.14-.25.82.05,1.73.22,2.31.86.18.15.19.47.01.62-.63.55-1.43.91-2.25,1.06-.4.11-.97.19-1.07.69-.1,1,.43,2.09-.15,3.02-.37.69-1.13.99-1.66,1.51-.01.88.49,1.66.54,2.54.04,1.19-.23,2.39-.65,3.5-1.1,2.43-.86,3,.47,4.53.27.78-1.1,4.99-1.8,5.64-.36.78,1.84,1.1,2.01,1.52.16.29.15.74-.19.89-.92.23-1.96-.05-2.8.49-.49.33-1.07.84-1,1.5.25.55.82.89,1.02,1.47.18.32-.16.65-.47.69-.77.12-1.56.08-2.33-.11-1.47-.43-3.09.22-4.6-.06-1.07-.29-.78-.18-1.04-.48-.05-.33.87-2.18.81-2.52-.59-.3-2.06.38-2.69.16-1.28-.34-2.64-.04-3.94-.32-1.04-.22-2.05-.58-3.05-.96-1.04-.43-2.26-.11-3.25-.74.19-.97.99-1.78,1.88-2.21.74-.33,1.52-.75,2.36-.66.69.07,1.36.08,2.03.19.92.15,1.69.74,2.59.95.69.14,1.37.34,2.07.36.21-.7.08-1.44.14-2.17.12-2.24.78-6.17.6-8.39-.19-1.37-.26-1.97-.93-3.25-.27-1.54-1.16-2.11-1.71-3.57-.18-.67.12-1.36.07-2.05-.07-.93-.45-1.81-.93-2.59-.91-1.5-1.03-3.29-.99-4.98-.37-.27-2.86-3.09-2.76-3.72.43-1.28,2.55.31,3.58-.63.8-1,1.81-1.78,2.88-2.47.65-.37,1.43-.32,2.14-.23.55.05,1.02.59,1.59.4h0Z"/><path class="cls-12" d="m250.52,68.78s-18.32,3.87-12.94,23.93"/><path class="cls-3" d="m252.44,72.17c-2.23.53-12.39,8.56-7.65,20.54"/><path class="cls-20" d="m284.62,28.76v-.17c0-1.34-.2-2.42-.61-3.23-.41-.79-.97-1.39-1.7-1.8-.73-.42-1.72-.63-2.99-.63h-.73c-1.1,0-1.96.19-2.57.58-.63.39-1.12.8-1.46,1.24-.34.44-.66,1.04-.95,1.82l-.12.27c-.36.96-.53,2.2-.53,3.74v5.76l2.11.66,6.68,1.46.68-1.58c.44-1.05.91-2.3,1.41-3.74.52-1.46.78-2.91.78-4.37"/><path class="cls-20" d="m278.13,46.73c.36-.32.69-.82,1-1.48l.1-.17c.37-.79.71-1.67,1.02-2.62l.46-1.46-4.98-1.34-3.35-.49-.68,1.53c-.45,1.02-.68,2.04-.68,3.06v.44c0,.71.11,1.28.34,1.7.21.42.41.76.61,1.02s.49.53.87.83h.02c.39.29.96.44,1.7.44h.1c.81,0,1.51-.16,2.09-.49.57-.31,1.03-.63,1.39-.97"/><path class="cls-20" d="m499.74,36.05l-.12-.27c-.29-.78-.61-1.38-.95-1.82-.34-.44-.83-.85-1.46-1.24-.62-.39-1.47-.58-2.57-.58h-.73c-1.26,0-2.26.21-2.99.63-.73.4-1.3,1-1.7,1.8-.4.81-.61,1.89-.61,3.23v.17c0,1.46.26,2.92.78,4.37.5,1.44.97,2.69,1.41,3.74l.68,1.58,6.68-1.46,2.11-.66v-5.76c0-1.54-.18-2.79-.53-3.74"/><path class="cls-20" d="m501.27,56.15c.19-.26.4-.6.61-1.02.23-.42.34-.99.34-1.7v-.44c0-1.02-.23-2.04-.68-3.06l-.68-1.53-3.35.49-4.98,1.34.46,1.46c.31.96.65,1.83,1.02,2.62l.1.17c.31.66.64,1.16,1,1.48.36.34.82.66,1.38.97.58.32,1.28.49,2.09.49h.1c.75,0,1.31-.15,1.7-.44h.02c.39-.29.68-.57.88-.83"/><path class="cls-20" d="m315.33,36.05l-.12-.27c-.29-.78-.61-1.38-.95-1.82-.34-.44-.83-.85-1.46-1.24-.62-.39-1.47-.58-2.57-.58h-.73c-1.26,0-2.26.21-2.99.63-.73.4-1.3,1-1.7,1.8-.4.81-.61,1.89-.61,3.23v.17c0,1.46.26,2.92.78,4.37.5,1.44.97,2.69,1.41,3.74l.68,1.58,6.68-1.46,2.11-.66v-5.76c0-1.54-.18-2.79-.53-3.74"/><path class="cls-20" d="m316.86,56.15c.19-.26.4-.6.61-1.02.23-.42.34-.99.34-1.7v-.44c0-1.02-.23-2.04-.68-3.06l-.68-1.53-3.35.49-4.98,1.34.46,1.46c.31.96.65,1.83,1.02,2.62l.1.17c.31.66.64,1.16,1,1.48.36.34.82.66,1.38.97.58.32,1.28.49,2.09.49h.1c.75,0,1.31-.15,1.7-.44h.02c.39-.29.68-.57.88-.83"/><path class="cls-20" d="m469.55,28.76v-.17c0-1.34-.2-2.42-.61-3.23-.41-.79-.97-1.39-1.7-1.8-.73-.42-1.72-.63-2.99-.63h-.73c-1.1,0-1.96.19-2.57.58-.63.39-1.12.8-1.46,1.24-.34.44-.66,1.04-.95,1.82l-.12.27c-.36.96-.53,2.2-.53,3.74v5.76l2.11.66,6.68,1.46.68-1.58c.44-1.05.91-2.3,1.41-3.74.52-1.46.78-2.91.78-4.37"/><path class="cls-20" d="m463.07,46.73c.36-.32.69-.82,1-1.48l.1-.17c.37-.79.71-1.67,1.02-2.62l.46-1.46-4.98-1.34-3.35-.49-.68,1.53c-.45,1.02-.68,2.04-.68,3.06v.44c0,.71.11,1.28.34,1.7.21.42.41.76.61,1.02s.49.53.87.83h.02c.39.29.96.44,1.7.44h.1c.81,0,1.51-.16,2.09-.49.57-.31,1.03-.63,1.39-.97"/><path class="cls-20" d="m379.73,36.05l-.12-.27c-.29-.78-.61-1.38-.95-1.82-.34-.44-.83-.85-1.46-1.24-.62-.39-1.47-.58-2.57-.58h-.73c-1.26,0-2.26.21-2.99.63-.73.4-1.3,1-1.7,1.8-.4.81-.61,1.89-.61,3.23v.17c0,1.46.26,2.92.78,4.37.5,1.44.97,2.69,1.41,3.74l.68,1.58,6.68-1.46,2.11-.66v-5.76c0-1.54-.18-2.79-.53-3.74"/><path class="cls-20" d="m381.26,56.15c.19-.26.4-.6.61-1.02.23-.42.34-.99.34-1.7v-.44c0-1.02-.23-2.04-.68-3.06l-.68-1.53-3.35.49-4.98,1.34.46,1.46c.31.96.65,1.83,1.02,2.62l.1.17c.31.66.64,1.16,1,1.48.36.34.82.66,1.38.97.58.32,1.28.49,2.09.49h.1c.75,0,1.31-.15,1.7-.44h.02c.39-.29.68-.57.88-.83"/><path class="cls-20" d="m412.71,28.76v-.17c0-1.34-.2-2.42-.61-3.23-.41-.79-.97-1.39-1.7-1.8-.73-.42-1.72-.63-2.99-.63h-.73c-1.1,0-1.96.19-2.57.58-.63.39-1.12.8-1.46,1.24-.34.44-.66,1.04-.95,1.82l-.12.27c-.36.96-.53,2.2-.53,3.74v5.76l2.11.66,6.68,1.46.68-1.58c.44-1.05.91-2.3,1.41-3.74.52-1.46.78-2.91.78-4.37"/><path class="cls-20" d="m406.22,46.73c.36-.32.69-.82,1-1.48l.1-.17c.37-.79.71-1.67,1.02-2.62l.46-1.46-4.98-1.34-3.35-.49-.68,1.53c-.45,1.02-.68,2.04-.68,3.06v.44c0,.71.11,1.28.34,1.7.21.42.41.76.61,1.02s.49.53.87.83h.02c.39.29.96.44,1.7.44h.1c.81,0,1.51-.16,2.09-.49.57-.31,1.03-.63,1.39-.97"/><text class="cls-15" transform="translate(104.98 52.89)"><tspan x="0" y="0">Self-Motion</tspan></text><text class="cls-17" transform="translate(83.88 89.18)"><tspan x="0" y="0">Object-Motion</tspan></text><text class="cls-16" transform="translate(105.28 126.59)"><tspan x="0" y="0">Eye-Motion</tspan></text></svg>