<?xml version="1.0" encoding="UTF-8"?><svg id="Ebene_1" xmlns="http://www.w3.org/2000/svg" xmlns:xlink="http://www.w3.org/1999/xlink" viewBox="0 0 531.33 182"><defs><style>.cls-1{fill:#26c0db;}.cls-2{stroke:#000;stroke-width:.38px;}.cls-2,.cls-3,.cls-4,.cls-5,.cls-6,.cls-7,.cls-8,.cls-9,.cls-10,.cls-11,.cls-12,.cls-13,.cls-14,.cls-15,.cls-16,.cls-17,.cls-18,.cls-19{stroke-miterlimit:10;}.cls-2,.cls-7,.cls-20,.cls-17{fill:none;}.cls-21{fill:#5c71cf;}.cls-22{letter-spacing:0em;}.cls-23,.cls-24{fill:#fff;}.cls-25{fill:#bebdbd;}.cls-3{stroke-width:.44px;}.cls-3,.cls-4,.cls-6,.cls-8,.cls-13,.cls-16{stroke:#26c0db;}.cls-3,.cls-4,.cls-8,.cls-26,.cls-13,.cls-16{fill:#ade8f2;}.cls-27{font-size:5.5px;}.cls-27,.cls-28,.cls-29,.cls-24,.cls-30{font-family:HelveticaNeueLTPro-Lt, 'Helvetica Neue LT Pro';}.cls-31{letter-spacing:-.02em;}.cls-4{stroke-width:.58px;}.cls-28{font-size:16.31px;}.cls-28,.cls-29{fill:#1d1d1b;}.cls-5{stroke-width:.56px;}.cls-5,.cls-11,.cls-15{fill:#adf2c7;stroke:#19db63;}.cls-6{fill:url(#_10_dpi_40_3);stroke-width:.5px;}.cls-7{stroke:#787878;}.cls-7,.cls-17{stroke-width:.37px;}.cls-8{stroke-width:.33px;}.cls-9{stroke-width:.58px;}.cls-9,.cls-18,.cls-19{fill:#b6c0ef;stroke:#5c71cf;}.cls-29{font-size:19.78px;}.cls-10{stroke-width:.51px;}.cls-10,.cls-12,.cls-14{fill:#fac992;stroke:#f39934;}.cls-32{fill:#f39934;}.cls-11,.cls-19{stroke-width:.57px;}.cls-12{stroke-width:.53px;}.cls-13{stroke-width:.53px;}.cls-33{fill:#19db63;}.cls-34{clip-path:url(#clippath);}.cls-35{fill:#afafaf;}.cls-14{stroke-width:.55px;}.cls-36{fill:#e3e2e2;}.cls-24,.cls-30{font-size:8px;}.cls-15{stroke-width:.61px;}.cls-16{stroke-width:.61px;}.cls-17{stroke:#dfdfdf;}.cls-18{stroke-width:.49px;}</style><pattern id="_10_dpi_40_3" x="0" y="0" width="28.8" height="28.8" patternTransform="translate(-6407.36 -6248.78) scale(.2)" patternUnits="userSpaceOnUse" viewBox="0 0 28.8 28.8"><rect class="cls-20" x="0" width="28.8" height="28.8"/><path class="cls-26" d="m28.8,31.68c1.59,0,2.88-1.29,2.88-2.88s-1.29-2.88-2.88-2.88-2.88,1.29-2.88,2.88,1.29,2.88,2.88,2.88Z"/><path class="cls-26" d="m14.4,31.68c1.59,0,2.88-1.29,2.88-2.88s-1.29-2.88-2.88-2.88-2.88,1.29-2.88,2.88,1.29,2.88,2.88,2.88Z"/><path class="cls-26" d="m28.8,17.28c1.59,0,2.88-1.29,2.88-2.88s-1.29-2.88-2.88-2.88-2.88,1.29-2.88,2.88,1.29,2.88,2.88,2.88Z"/><path class="cls-26" d="m14.4,17.28c1.59,0,2.88-1.29,2.88-2.88s-1.29-2.88-2.88-2.88-2.88,1.29-2.88,2.88,1.29,2.88,2.88,2.88Z"/><path class="cls-26" d="m7.2,24.48c1.59,0,2.88-1.29,2.88-2.88s-1.29-2.88-2.88-2.88-2.88,1.29-2.88,2.88,1.29,2.88,2.88,2.88Z"/><path class="cls-26" d="m21.6,24.48c1.59,0,2.88-1.29,2.88-2.88s-1.29-2.88-2.88-2.88-2.88,1.29-2.88,2.88,1.29,2.88,2.88,2.88Z"/><path class="cls-26" d="m7.2,10.08c1.59,0,2.88-1.29,2.88-2.88s-1.29-2.88-2.88-2.88-2.88,1.29-2.88,2.88,1.29,2.88,2.88,2.88Z"/><path class="cls-26" d="m21.6,10.08c1.59,0,2.88-1.29,2.88-2.88s-1.29-2.88-2.88-2.88-2.88,1.29-2.88,2.88,1.29,2.88,2.88,2.88Z"/><path class="cls-26" d="m0,31.68c1.59,0,2.88-1.29,2.88-2.88S1.59,25.92,0,25.92s-2.88,1.29-2.88,2.88S-1.59,31.68,0,31.68Z"/><path class="cls-26" d="m0,17.28c1.59,0,2.88-1.29,2.88-2.88S1.59,11.52,0,11.52s-2.88,1.29-2.88,2.88S-1.59,17.28,0,17.28Z"/><path class="cls-26" d="m28.8,2.88c1.59,0,2.88-1.29,2.88-2.88s-1.29-2.88-2.88-2.88-2.88,1.29-2.88,2.88,1.29,2.88,2.88,2.88Z"/><path class="cls-26" d="m14.4,2.88c1.59,0,2.88-1.29,2.88-2.88s-1.29-2.88-2.88-2.88-2.88,1.29-2.88,2.88,1.29,2.88,2.88,2.88Z"/><path class="cls-26" d="m0,2.88c1.59,0,2.88-1.29,2.88-2.88S1.59-2.88,0-2.88-2.88-1.59-2.88,0-1.59,2.88,0,2.88Z"/></pattern><clipPath id="clippath"><path class="cls-20" d="m81.88,172.77c-.26-.04-.49.13-1.6-.57-.27-.17-.38-.48-.47-.89-.13-.6-.1-1.25-.21-2.08-.13-1.01-.44-2.05-.56-2.87-.06-.43,0-.88-.07-1.33-.09-.54-.33-1.11-.49-1.68-.26-.9-.43-1.81-.7-2.52-.41-1.08-1.45-2.11-1.09-3.22-.79-.43-1.34-.24-1.99-.8-.47-.41-.49-1.12-.66-1.78-.19-.7-.44-1.48-.25-2.17.53,1.26.2,2.78.98,3.64.82.9,3.03,1.06,3.5,1.33.48.27,1.4.69,1.66.57.27-.12.53-1.59.11-1.63-.43-.03-1.38.19-1.45.15-.61-.32-.9-.58-1.58-.77-.13-.04-.14-.11-.28-.14-.16-.04-.3-.01-.42-.07-.49-.68-.41-1.88-.56-2.87-.02-.16-.09-.5-.14-.63-.18-.48-.64-.56-.63-.98.32.32.62.46.8.98.44,1.22-.29,3.47,1.15,3.29.07-.9.25-1.58.11-2.31-.04-.21-.08-.4-.1-.63-.02-.2.04-.48,0-.7-.1-.56-.45-.97-.7-1.26-.07-.08-.09-.2-.14-.28-.37-.53-.77-1.03-.21-1.47.3.08.61.08.91,0,.13-.15.05-.51.07-.77.09-.21.34-.26.49-.42-.22-.61-.42-1-.21-1.75-.3-.37-.63-.75-1.21-.87-.08-.02-.43-.11-.48-.11-.63-.05-1.45.4-1.61.56-.16.16-.39.81-.28,1.47.06.37.45.68.49.98.09.63-.31,1.08-.49,1.47-.38.81-.79,2.01-.84,2.94-.02.34-.12.58-.16.83-.04.26-.05.61-.12.85-.08.27-.13.65-.21.98-.18.7.14,1.31,0,2.1-.07.43-.24.93-.24,1.23,0,.23-.08.7-.13.9-.19.78-1.57,1.25-.44,1.75,1.13.5,1.21-.92,1.26-1.78.06-.98.43-1.64.59-2.52.19-.98-.29-1.85-.28-2.8.18.94.67,1.75.49,2.94-.11.73-.69,1.4-.63,2.24.02.23.26.49.28.77.02.33-.24,1-.35,1.61-.11.59-.27,1.17-.35,1.68-.08.5-.06,1.02-.21,1.33-.21.43-.34.42-1.05.91-.71.49-1.34,2.82-2.1,4.13-.29.35-.47.56-.69.76-.22.2-.39.29-.32.64.11.52.78.94,1.15,1.26.29.26.55.72.69.79.15.07.7.11,1.11.07.06-.02.22.08.23-.09,0-.17-.84-.37-.91-.56-.45-1.11-.81-2.11,0-3.01.21-.24.63-.43.91-.7.33-.32.7-.89.82-1.02.12-.13.51-.79.93-1.29.28-.33.77-.49.98-.84.16-.27.1-.63.21-.91.2-.52.62-.93.84-1.47.12-.3.17-.65.28-.98.28-.82.58-2.89.65-2.29.17,1.4-.36,1.64-.37,2.57-.01.92.8,1.51,1.26,2.24.44,1.3.28,2.91.84,4.34.33.85.8,1.68.91,2.52.06.46-.09.98.21,1.4-.17,0,1.44-.02,2.76-.04.29,0,.47-.22.29-.34Z"/></clipPath></defs><line class="cls-7" x1="5.11" y1="11" x2="5.11" y2="174.88"/><line class="cls-17" x1="26.87" y1="11" x2="26.87" y2="174.88"/><line class="cls-17" x1="48.63" y1="11" x2="48.63" y2="174.88"/><line class="cls-17" x1="70.39" y1="11" x2="70.39" y2="174.88"/><line class="cls-17" x1="92.15" y1="11" x2="92.15" y2="174.88"/><line class="cls-7" x1="92.48" y1="11" x2="92.48" y2="174.88"/><line class="cls-17" x1="113.91" y1="11" x2="113.91" y2="174.88"/><line class="cls-17" x1="135.67" y1="11" x2="135.67" y2="174.88"/><line class="cls-17" x1="157.43" y1="11" x2="157.43" y2="174.88"/><line class="cls-17" x1="179.2" y1="11" x2="179.2" y2="174.88"/><line class="cls-7" x1="179.52" y1="11" x2="179.52" y2="174.88"/><line class="cls-17" x1="200.96" y1="11" x2="200.96" y2="174.88"/><line class="cls-17" x1="222.72" y1="11" x2="222.72" y2="174.88"/><line class="cls-17" x1="244.48" y1="11" x2="244.48" y2="174.88"/><line class="cls-17" x1="266.24" y1="11" x2="266.24" y2="174.88"/><line class="cls-7" x1="265.89" y1="11" x2="265.89" y2="174.88"/><line class="cls-17" x1="288" y1="11" x2="288" y2="174.88"/><line class="cls-17" x1="309.76" y1="11" x2="309.76" y2="174.88"/><line class="cls-17" x1="331.52" y1="11" x2="331.52" y2="174.88"/><line class="cls-17" x1="353.28" y1="11" x2="353.28" y2="174.88"/><line class="cls-17" x1="375.04" y1="11" x2="375.04" y2="174.88"/><line class="cls-7" x1="353.15" y1="11" x2="353.15" y2="174.88"/><line class="cls-17" x1="396.8" y1="11" x2="396.8" y2="174.88"/><line class="cls-17" x1="418.57" y1="11" x2="418.57" y2="174.88"/><line class="cls-17" x1="440.33" y1="11" x2="440.33" y2="174.88"/><line class="cls-17" x1="462.09" y1="11" x2="462.09" y2="174.88"/><line class="cls-7" x1="440.52" y1="11" x2="440.52" y2="174.88"/><line class="cls-17" x1="483.85" y1="11" x2="483.85" y2="174.88"/><line class="cls-17" x1="505.61" y1="11" x2="505.61" y2="174.88"/><line class="cls-7" x1="526.78" y1="11" x2="526.78" y2="174.88"/><rect class="cls-23" x="446.17" y="27.69" width="77.14" height="44.23"/><rect class="cls-35" x="4.88" y="6" width="522.23" height="11"/><text class="cls-24" transform="translate(44.84 14.33)"><tspan x="0" y="0">Year 1</tspan></text><text class="cls-24" transform="translate(125.96 14.33)"><tspan x="0" y="0">Year 2</tspan></text><text class="cls-24" transform="translate(213.29 14.33)"><tspan x="0" y="0">Year 3</tspan></text><text class="cls-24" transform="translate(300.46 14.33)"><tspan x="0" y="0">Year 4</tspan></text><text class="cls-24" transform="translate(386.22 14.33)"><tspan x="0" y="0">Year 5</tspan></text><text class="cls-24" transform="translate(473.21 14.33)"><tspan x="0" y="0">Year 6</tspan></text><rect class="cls-4" x="200.6" y="35.37" width="43.5" height="6"/><rect class="cls-6" x="135.42" y="35.4" width="64.99" height="6"/><rect class="cls-13" x="5.11" y="24.12" width="86.72" height="6"/><text class="cls-27" transform="translate(5.94 28.47)"><tspan x="0" y="0">WPA-1: Smooth pursuit as fixations?</tspan></text><rect class="cls-8" x="92.64" y="35.37" width="42.8" height="6"/><text class="cls-27" transform="translate(93.47 39.72)"><tspan x="0" y="0">WPA-2-I: Sustained part of smooth pursuit</tspan></text><rect class="cls-16" x="136" y="46.59" width="64.35" height="6"/><text class="cls-27" transform="translate(136.83 50.94)"><tspan x="0" y="0">WPA-2-II: Splines as LMMs</tspan></text><rect class="cls-3" x="244.32" y="57.82" width="65.05" height="6"/><text class="cls-27" transform="translate(245.16 62.18)"><tspan x="0" y="0">WPA-3: Stimulation during smooth pursuit</tspan></text><rect class="cls-9" x="222.71" y="69.06" width="86.29" height="6"/><text class="cls-27" transform="translate(223.55 73.42)"><tspan x="0" y="0">WPB-1: Object optic flow</tspan></text><rect class="cls-18" x="310.17" y="80.3" width="86.29" height="6"/><text class="cls-27" transform="translate(311.15 84.65)"><tspan x="0" y="0">WPB-2: Locomotion optic flow</tspan></text><rect class="cls-19" x="397.07" y="91.53" width="129.52" height="6"/><text class="cls-27" transform="translate(397.9 95.89)"><tspan x="0" y="0">WPB-3: Real-world optic flow</tspan></text><rect class="cls-14" x="5.11" y="102.77" width="86.89" height="6"/><text class="cls-27" transform="translate(5.94 107.12)"><tspan x="0" y="0">WPC-1: Static dynamic motion</tspan></text><rect class="cls-10" x="92.81" y="114" width="64.18" height="6"/><text class="cls-27" transform="translate(93.65 118.36)"><tspan x="0" y="0">WPC-2-I: Movie dataset</tspan></text><rect class="cls-12" x="157.64" y="125.24" width="64.09" height="6"/><text class="cls-27" transform="translate(158.84 129.95)"><tspan x="0" y="0">WPC-2-II: Movie analysis</tspan></text><rect class="cls-5" x="222.76" y="142.47" width="108.24" height="6"/><text class="cls-27" transform="translate(223.87 147.08)"><tspan x="0" y="0">WPC-3-I: Self-action gaming dataset</tspan></text><rect class="cls-11" x="332.18" y="153.71" width="85.8" height="6"/><text class="cls-27" transform="translate(335.57 158.48)"><tspan x="0" y="0">WPC-3-II: Self-action analysis</tspan></text><rect class="cls-15" x="418.33" y="164.94" width="108.6" height="6"/><text class="cls-27" transform="translate(417.74 169.3)"><tspan x="0" y="0">WPC-4: Next generation non-linear analyses</tspan></text><path class="cls-25" d="m81.96,172.95c0,.66-3.61,1.19-8.05,1.19s-8.05-.53-8.05-1.19,3.61-1.19,8.05-1.19,8.05.53,8.05,1.19Z"/><path d="m81.88,172.77c-.26-.04-.49.13-1.6-.57-.27-.17-.38-.48-.47-.89-.13-.6-.1-1.25-.21-2.08-.13-1.01-.44-2.05-.56-2.87-.06-.43,0-.88-.07-1.33-.09-.54-.33-1.11-.49-1.68-.26-.9-.43-1.81-.7-2.52-.41-1.08-1.45-2.11-1.09-3.22-.79-.43-1.34-.24-1.99-.8-.47-.41-.49-1.12-.66-1.78-.19-.7-.44-1.48-.25-2.17.53,1.26.2,2.78.98,3.64.82.9,3.03,1.06,3.5,1.33.48.27,1.4.69,1.66.57.27-.12.53-1.59.11-1.63-.43-.03-1.39.21-1.45.15-.64-.59-2.16-.92-2.28-.98-.49-.68-.41-1.88-.56-2.87-.02-.16-.09-.5-.14-.63-.18-.48-.64-.56-.63-.98.32.32.62.46.8.98.44,1.22-.26,3.37,1.15,3.44.07-.9.25-1.73.11-2.46-.04-.21-.08-.4-.1-.63-.02-.2.04-.48,0-.7-.1-.56-.45-.97-.7-1.26-.07-.08-.09-.2-.14-.28-.37-.53-.77-1.03-.21-1.47.3.08.61.08.91,0,.13-.15.05-.51.07-.77.09-.21.34-.26.49-.42-.22-.61-.42-.98-.24-1.76-.02-.16-.61-.74-1.18-.86-.08-.02-.43-.11-.48-.11-.63-.05-1.45.4-1.61.56-.16.16-.39.81-.28,1.47.06.37.45.68.49.98.09.63-.31,1.08-.49,1.47-.38.81-.79,2.01-.84,2.94-.02.34-.12.58-.16.83-.04.26-.05.61-.12.85-.08.27-.13.65-.21.98-.18.7.14,1.31,0,2.1-.07.43-.24.93-.24,1.23,0,.23-.08.7-.13.9-.14.59-.97,1.48-.44,1.75.56.28.96.08,1.12-.32.16-.4.11-1.03.14-1.46.06-.98.43-1.64.59-2.52.19-.98-.29-1.85-.28-2.8.18.94.67,1.75.49,2.94-.11.73-.69,1.4-.63,2.24.02.23.26.49.28.77.02.33-.24,1-.35,1.61-.11.59-.27,1.17-.35,1.68-.08.5-.06,1.02-.21,1.33-.21.43-.34.42-1.05.91-.71.49-1.34,2.82-2.1,4.13-.29.35-.47.56-.69.76-.22.2-.39.29-.32.64.11.52.78.94,1.15,1.26.29.26.55.72.69.79.15.07.7.11,1.11.07.06-.02.22.08.23-.09,0-.17-.84-.37-.91-.56-.45-1.11-.81-2.11,0-3.01.21-.24.63-.43.91-.7.33-.32.7-.89.82-1.02.12-.13.51-.79.93-1.29.28-.33.77-.49.98-.84.16-.27.1-.63.21-.91.2-.52.62-.93.84-1.47.12-.3.17-.65.28-.98.28-.82.58-2.89.65-2.29.17,1.4-.36,1.64-.37,2.57-.01.92.8,1.51,1.26,2.24.44,1.3.28,2.91.84,4.34.33.85.8,1.68.91,2.52.06.46-.09.98.21,1.4-.17,0,1.44-.02,2.76-.04.29,0,.47-.22.29-.34Z"/><g class="cls-34"><g id="EEG_Big"><path class="cls-36" d="m74.39,147c0,.12-.1.21-.21.21s-.21-.1-.21-.21.1-.21.21-.21.21.1.21.21Z"/><path class="cls-36" d="m74.39,146.36c0,.12-.1.21-.21.21s-.21-.1-.21-.21.1-.21.21-.21.21.1.21.21Z"/><path class="cls-36" d="m75.03,146.75c0,.12-.1.21-.21.21s-.21-.1-.21-.21.1-.21.21-.21.21.1.21.21Z"/><path class="cls-36" d="m74.34,145.7c0,.12-.1.21-.21.21s-.21-.1-.21-.21.1-.21.21-.21.21.1.21.21Z"/><path class="cls-36" d="m73.82,146.65c0,.12-.1.21-.21.21s-.21-.1-.21-.21.1-.21.21-.21.21.1.21.21Z"/><path class="cls-36" d="m75.18,146.1c0,.12-.1.21-.21.21s-.21-.1-.21-.21.1-.21.21-.21.21.1.21.21Z"/><path class="cls-36" d="m75.03,145.54c0,.12-.1.21-.21.21s-.21-.1-.21-.21.1-.21.21-.21.21.1.21.21Z"/><path class="cls-36" d="m75.78,145.83c0,.12-.1.21-.21.21s-.21-.1-.21-.21.1-.21.21-.21.21.1.21.21Z"/><path class="cls-36" d="m75.81,146.65c0,.12-.1.21-.21.21s-.21-.1-.21-.21.1-.21.21-.21.21.1.21.21Z"/><path class="cls-36" d="m75.44,147.4c0,.12-.1.21-.21.21s-.21-.1-.21-.21.1-.21.21-.21.21.1.21.21Z"/><path class="cls-36" d="m74.77,147.47c0,.12-.1.21-.21.21s-.21-.1-.21-.21.1-.21.21-.21.21.1.21.21Z"/><path class="cls-36" d="m76.2,146.15c0,.12-.1.21-.21.21s-.21-.1-.21-.21.1-.21.21-.21.21.1.21.21Z"/><path class="cls-36" d="m75.7,145.24c0,.12-.1.21-.21.21s-.21-.1-.21-.21.1-.21.21-.21.21.1.21.21Z"/><path class="cls-36" d="m76.27,145.49c0,.12-.1.21-.21.21s-.21-.1-.21-.21.1-.21.21-.21.21.1.21.21Z"/><path class="cls-36" d="m76.78,145.75c0,.12-.1.21-.21.21s-.21-.1-.21-.21.1-.21.21-.21.21.1.21.21Z"/><path class="cls-36" d="m73.99,147.58c0,.12-.1.21-.21.21s-.21-.1-.21-.21.1-.21.21-.21.21.1.21.21Z"/></g></g><text class="cls-28" transform="translate(19.81 159.64)"><tspan x="0" y="0">EEG in</tspan></text><text class="cls-29" transform="translate(16.2 172.58) scale(.82) skewX(-34.44)"><tspan x="0" y="0">motion</tspan></text><line class="cls-2" x1="21.19" y1="164.84" x2="15.33" y2="164.84"/><line class="cls-2" x1="20.41" y1="166.22" x2="14.55" y2="166.22"/><line class="cls-2" x1="19.39" y1="167.59" x2="13.53" y2="167.59"/><line class="cls-2" x1="18.43" y1="168.96" x2="12.57" y2="168.96"/><line class="cls-2" x1="17.47" y1="170.33" x2="11.6" y2="170.33"/><line class="cls-2" x1="16.66" y1="171.7" x2="10.79" y2="171.7"/><rect class="cls-12" x="222.47" y="133.35" width="86.09" height="6"/><text class="cls-27" transform="translate(223.66 138.07)"><tspan x="0" y="0">WPC-2-III: LMM and overlap</tspan></text><text class="cls-30" transform="translate(446.91 36.73)"><tspan class="cls-1"><tspan x="0" y="0">doctoral </tspan><tspan class="cls-31" x="30.38" y="0">r</tspan><tspan class="cls-22" x="32.76" y="0">esea</tspan><tspan class="cls-31" x="49.06" y="0">r</tspan><tspan x="51.44" y="0">cher 1</tspan></tspan><tspan class="cls-21"><tspan x="0" y="9.6">doctoral </tspan><tspan class="cls-31" x="30.38" y="9.6">r</tspan><tspan class="cls-22" x="32.76" y="9.6">esea</tspan><tspan class="cls-31" x="49.06" y="9.6">r</tspan><tspan x="51.44" y="9.6">cher 2</tspan></tspan><tspan class="cls-32"><tspan x="0" y="19.2">doctoral </tspan><tspan class="cls-31" x="30.38" y="19.2">r</tspan><tspan class="cls-22" x="32.76" y="19.2">esea</tspan><tspan class="cls-31" x="49.06" y="19.2">r</tspan><tspan x="51.44" y="19.2">cher 3</tspan></tspan><tspan class="cls-33"><tspan x="0" y="28.8">doctoral </tspan><tspan class="cls-31" x="30.38" y="28.8">r</tspan><tspan class="cls-22" x="32.76" y="28.8">esea</tspan><tspan class="cls-31" x="49.06" y="28.8">r</tspan><tspan x="51.44" y="28.8">cher 4</tspan></tspan></text></svg>