<?xml version="1.0" encoding="UTF-8"?><svg id="Ebene_1" xmlns="http://www.w3.org/2000/svg" xmlns:xlink="http://www.w3.org/1999/xlink" viewBox="0 0 82.86 36.97"><defs><style>.cls-1{stroke:#000;stroke-miterlimit:10;stroke-width:.38px;}.cls-1,.cls-2{fill:none;}.cls-3{fill:#bebdbd;}.cls-4{font-size:16.31px;}.cls-4,.cls-5{fill:#1d1d1b;font-family:HelveticaNeueLTPro-Lt, 'Helvetica Neue LT Pro';}.cls-5{font-size:19.78px;}.cls-6{clip-path:url(#clippath);}.cls-7{fill:#e3e2e2;}</style><clipPath id="clippath"><path class="cls-2" d="m76.85,30.56c-.26-.04-.49.13-1.6-.57-.27-.17-.38-.48-.47-.89-.13-.6-.1-1.25-.21-2.08-.13-1.01-.44-2.05-.56-2.87-.06-.43,0-.88-.07-1.33-.09-.54-.33-1.11-.49-1.68-.26-.9-.43-1.81-.7-2.52-.41-1.08-1.45-2.11-1.09-3.22-.79-.43-1.34-.24-1.99-.8-.47-.41-.49-1.12-.66-1.78-.19-.7-.44-1.48-.25-2.17.53,1.26.2,2.78.98,3.64.82.9,3.03,1.06,3.5,1.33.48.27,1.4.69,1.66.57.27-.12.53-1.59.11-1.63-.43-.03-1.38.19-1.45.15-.61-.32-.9-.58-1.58-.77-.13-.04-.14-.11-.28-.14-.16-.04-.3-.01-.42-.07-.49-.68-.41-1.88-.56-2.87-.02-.16-.09-.5-.14-.63-.18-.48-.64-.56-.63-.98.32.32.62.46.8.98.44,1.22-.29,3.47,1.15,3.29.07-.9.25-1.58.11-2.31-.04-.21-.08-.4-.1-.63-.02-.2.04-.48,0-.7-.1-.56-.45-.97-.7-1.26-.07-.08-.09-.2-.14-.28-.37-.53-.77-1.03-.21-1.47.3.08.61.08.91,0,.13-.15.05-.51.07-.77.09-.21.34-.26.49-.42-.22-.61-.42-1-.21-1.75-.3-.37-.63-.75-1.21-.87-.08-.02-.43-.11-.48-.11-.63-.05-1.45.4-1.61.56-.16.16-.39.81-.28,1.47.06.37.45.68.49.98.09.63-.31,1.08-.49,1.47-.38.81-.79,2.01-.84,2.94-.02.34-.12.58-.16.83-.04.26-.05.61-.12.85-.08.27-.13.65-.21.98-.18.7.14,1.31,0,2.1-.07.43-.24.93-.24,1.23,0,.23-.08.7-.13.9-.19.78-1.57,1.25-.44,1.75,1.13.5,1.21-.92,1.26-1.78.06-.98.43-1.64.59-2.52.19-.98-.29-1.85-.28-2.8.18.94.67,1.75.49,2.94-.11.73-.69,1.4-.63,2.24.02.23.26.49.28.77.02.33-.24,1-.35,1.61-.11.59-.27,1.17-.35,1.68-.08.5-.06,1.02-.21,1.33-.21.43-.34.42-1.05.91-.71.49-1.34,2.82-2.1,4.13-.29.35-.47.56-.69.76-.22.2-.39.29-.32.64.11.52.78.94,1.15,1.26.29.26.55.72.69.79.15.07.7.11,1.11.07.06-.02.22.08.23-.09,0-.17-.84-.37-.91-.56-.45-1.11-.81-2.11,0-3.01.21-.24.63-.43.91-.7.33-.32.7-.89.82-1.02.12-.13.51-.79.93-1.29.28-.33.77-.49.98-.84.16-.27.1-.63.21-.91.2-.52.62-.93.84-1.47.12-.3.17-.65.28-.98.28-.82.58-2.89.65-2.29.17,1.4-.36,1.64-.37,2.57-.01.92.8,1.51,1.26,2.24.44,1.3.28,2.91.84,4.34.33.85.8,1.68.91,2.52.06.46-.09.98.21,1.4-.17,0,1.44-.02,2.76-.04.29,0,.47-.22.29-.34Z"/></clipPath></defs><path class="cls-3" d="m76.92,30.74c0,.66-3.61,1.19-8.05,1.19s-8.05-.53-8.05-1.19,3.61-1.19,8.05-1.19,8.05.53,8.05,1.19Z"/><path d="m76.85,30.56c-.26-.04-.49.13-1.6-.57-.27-.17-.38-.48-.47-.89-.13-.6-.1-1.25-.21-2.08-.13-1.01-.44-2.05-.56-2.87-.06-.43,0-.88-.07-1.33-.09-.54-.33-1.11-.49-1.68-.26-.9-.43-1.81-.7-2.52-.41-1.08-1.45-2.11-1.09-3.22-.79-.43-1.34-.24-1.99-.8-.47-.41-.49-1.12-.66-1.78-.19-.7-.44-1.48-.25-2.17.53,1.26.2,2.78.98,3.64.82.9,3.03,1.06,3.5,1.33.48.27,1.4.69,1.66.57.27-.12.53-1.59.11-1.63-.43-.03-1.39.21-1.45.15-.64-.59-2.16-.92-2.28-.98-.49-.68-.41-1.88-.56-2.87-.02-.16-.09-.5-.14-.63-.18-.48-.64-.56-.63-.98.32.32.62.46.8.98.44,1.22-.26,3.37,1.15,3.44.07-.9.25-1.73.11-2.46-.04-.21-.08-.4-.1-.63-.02-.2.04-.48,0-.7-.1-.56-.45-.97-.7-1.26-.07-.08-.09-.2-.14-.28-.37-.53-.77-1.03-.21-1.47.3.08.61.08.91,0,.13-.15.05-.51.07-.77.09-.21.34-.26.49-.42-.22-.61-.42-.98-.24-1.76-.02-.16-.61-.74-1.18-.86-.08-.02-.43-.11-.48-.11-.63-.05-1.45.4-1.61.56-.16.16-.39.81-.28,1.47.06.37.45.68.49.98.09.63-.31,1.08-.49,1.47-.38.81-.79,2.01-.84,2.94-.02.34-.12.58-.16.83-.04.26-.05.61-.12.85-.08.27-.13.65-.21.98-.18.7.14,1.31,0,2.1-.07.43-.24.93-.24,1.23,0,.23-.08.7-.13.9-.14.59-.97,1.48-.44,1.75.56.28.96.08,1.12-.32.16-.4.11-1.03.14-1.46.06-.98.43-1.64.59-2.52.19-.98-.29-1.85-.28-2.8.18.94.67,1.75.49,2.94-.11.73-.69,1.4-.63,2.24.02.23.26.49.28.77.02.33-.24,1-.35,1.61-.11.59-.27,1.17-.35,1.68-.08.5-.06,1.02-.21,1.33-.21.43-.34.42-1.05.91-.71.49-1.34,2.82-2.1,4.13-.29.35-.47.56-.69.76-.22.2-.39.29-.32.64.11.52.78.94,1.15,1.26.29.26.55.72.69.79.15.07.7.11,1.11.07.06-.02.22.08.23-.09,0-.17-.84-.37-.91-.56-.45-1.11-.81-2.11,0-3.01.21-.24.63-.43.91-.7.33-.32.7-.89.82-1.02.12-.13.51-.79.93-1.29.28-.33.77-.49.98-.84.16-.27.1-.63.21-.91.2-.52.62-.93.84-1.47.12-.3.17-.65.28-.98.28-.82.58-2.89.65-2.29.17,1.4-.36,1.64-.37,2.57-.01.92.8,1.51,1.26,2.24.44,1.3.28,2.91.84,4.34.33.85.8,1.68.91,2.52.06.46-.09.98.21,1.4-.17,0,1.44-.02,2.76-.04.29,0,.47-.22.29-.34Z"/><g class="cls-6"><g id="EEG_Big"><path class="cls-7" d="m69.36,4.79c0,.12-.1.21-.21.21s-.21-.1-.21-.21.1-.21.21-.21.21.1.21.21Z"/><path class="cls-7" d="m69.35,4.15c0,.12-.1.21-.21.21s-.21-.1-.21-.21.1-.21.21-.21.21.1.21.21Z"/><path class="cls-7" d="m69.99,4.54c0,.12-.1.21-.21.21s-.21-.1-.21-.21.1-.21.21-.21.21.1.21.21Z"/><path class="cls-7" d="m69.31,3.49c0,.12-.1.21-.21.21s-.21-.1-.21-.21.1-.21.21-.21.21.1.21.21Z"/><path class="cls-7" d="m68.78,4.44c0,.12-.1.21-.21.21s-.21-.1-.21-.21.1-.21.21-.21.21.1.21.21Z"/><path class="cls-7" d="m70.14,3.89c0,.12-.1.21-.21.21s-.21-.1-.21-.21.1-.21.21-.21.21.1.21.21Z"/><path class="cls-7" d="m69.99,3.33c0,.12-.1.21-.21.21s-.21-.1-.21-.21.1-.21.21-.21.21.1.21.21Z"/><path class="cls-7" d="m70.74,3.62c0,.12-.1.21-.21.21s-.21-.1-.21-.21.1-.21.21-.21.21.1.21.21Z"/><path class="cls-7" d="m70.77,4.44c0,.12-.1.21-.21.21s-.21-.1-.21-.21.1-.21.21-.21.21.1.21.21Z"/><path class="cls-7" d="m70.4,5.2c0,.12-.1.21-.21.21s-.21-.1-.21-.21.1-.21.21-.21.21.1.21.21Z"/><path class="cls-7" d="m69.73,5.26c0,.12-.1.21-.21.21s-.21-.1-.21-.21.1-.21.21-.21.21.1.21.21Z"/><path class="cls-7" d="m71.17,3.94c0,.12-.1.21-.21.21s-.21-.1-.21-.21.1-.21.21-.21.21.1.21.21Z"/><path class="cls-7" d="m70.66,3.03c0,.12-.1.21-.21.21s-.21-.1-.21-.21.1-.21.21-.21.21.1.21.21Z"/><path class="cls-7" d="m71.23,3.28c0,.12-.1.21-.21.21s-.21-.1-.21-.21.1-.21.21-.21.21.1.21.21Z"/><path class="cls-7" d="m71.75,3.54c0,.12-.1.21-.21.21s-.21-.1-.21-.21.1-.21.21-.21.21.1.21.21Z"/><path class="cls-7" d="m68.96,5.37c0,.12-.1.21-.21.21s-.21-.1-.21-.21.1-.21.21-.21.21.1.21.21Z"/></g></g><text class="cls-4" transform="translate(14.77 17.43)"><tspan x="0" y="0">EEG in</tspan></text><text class="cls-5" transform="translate(11.16 30.37) scale(.82) skewX(-34.44)"><tspan x="0" y="0">motion</tspan></text><line class="cls-1" x1="16.15" y1="22.63" x2="10.29" y2="22.63"/><line class="cls-1" x1="15.37" y1="24.01" x2="9.51" y2="24.01"/><line class="cls-1" x1="14.35" y1="25.38" x2="8.49" y2="25.38"/><line class="cls-1" x1="13.4" y1="26.75" x2="7.53" y2="26.75"/><line class="cls-1" x1="12.43" y1="28.12" x2="6.57" y2="28.12"/><line class="cls-1" x1="11.62" y1="29.49" x2="5.76" y2="29.49"/></svg>